<svg width="24" height="24" viewBox="0 0 24 24" fill="none" xmlns="http://www.w3.org/2000/svg">
<g clip-path="url(#clip0_45806_2)">
<rect width="24" height="24" rx="5" fill="#182529"/>
<path d="M8.746 17.221C8.07 17.221 7.732 16.9307 7.732 16.35C7.732 16.1593 7.758 15.9427 7.81 15.7C7.87067 15.4487 7.953 15.128 8.057 14.738C8.17833 14.3307 8.26933 13.984 8.33 13.698C8.39067 13.412 8.421 13.1563 8.421 12.931C8.421 12.3417 8.161 12.047 7.641 12.047C7.50233 12.047 7.35933 12.0643 7.212 12.099L6.172 17H4.3L6.185 8.16C5.60433 8.40267 5.15367 8.76667 4.833 9.252C4.521 9.73733 4.365 10.3223 4.365 11.007C4.365 11.3277 4.39533 11.553 4.456 11.683C4.51667 11.8043 4.547 11.8737 4.547 11.891C4.079 11.891 3.728 11.7957 3.494 11.605C3.26867 11.4057 3.156 11.0807 3.156 10.63C3.156 10.0753 3.38133 9.538 3.832 9.018C4.29133 8.48933 4.87633 8.06467 5.587 7.744C6.29767 7.41467 7.00833 7.25 7.719 7.25C7.84033 7.25 8.01367 7.25867 8.239 7.276L7.407 11.163C7.58033 10.6517 7.81867 10.1317 8.122 9.603C8.434 9.07433 8.71567 8.667 8.967 8.381C9.58233 7.627 10.2193 7.25 10.878 7.25C11.1553 7.25 11.385 7.328 11.567 7.484C11.7577 7.63133 11.853 7.84367 11.853 8.121C11.853 8.433 11.7707 8.66267 11.606 8.81C11.4413 8.95733 11.242 9.031 11.008 9.031C10.6353 9.031 10.3797 8.85767 10.241 8.511C9.799 8.77967 9.396 9.161 9.032 9.655C8.67667 10.149 8.33433 10.7557 8.005 11.475C8.14367 11.4663 8.32567 11.462 8.551 11.462C9.14033 11.462 9.55633 11.5877 9.799 11.839C10.0417 12.0817 10.163 12.4197 10.163 12.853C10.163 13.1043 10.1327 13.373 10.072 13.659C10.0113 13.9363 9.92467 14.283 9.812 14.699C9.74267 14.9677 9.67767 15.232 9.617 15.492C9.55633 15.752 9.526 15.9687 9.526 16.142C9.526 16.3413 9.56933 16.519 9.656 16.675C9.75133 16.831 9.877 16.9393 10.033 17C9.50433 17.1473 9.07533 17.221 8.746 17.221ZM14.5119 8.446C13.9572 8.53267 13.5239 8.77967 13.2119 9.187C12.8999 9.59433 12.7439 10.2053 12.7439 11.02C12.7439 11.3407 12.7742 11.566 12.8349 11.696C12.8956 11.8173 12.9259 11.8867 12.9259 11.904C12.4579 11.904 12.1069 11.8087 11.8729 11.618C11.6476 11.4187 11.5349 11.0937 11.5349 10.643C11.5349 10.0277 11.6866 9.46867 11.9899 8.966C12.2932 8.45467 12.7742 8.043 13.4329 7.731C14.1002 7.419 14.9452 7.263 15.9679 7.263C16.3752 7.263 16.7739 7.28467 17.1639 7.328C17.5539 7.37133 17.7922 7.39733 17.8789 7.406C18.6849 7.51867 19.4302 7.575 20.1149 7.575C20.6696 7.575 21.1722 7.484 21.6229 7.302C21.5969 8.394 21.0769 8.94433 20.0629 8.953L18.3339 17H16.4619L18.2299 8.797L17.2159 8.641C16.8086 8.563 16.5269 8.51533 16.3709 8.498L14.5509 17H12.6789L14.5119 8.446Z" fill="#6A9FF6"/>
</g>
<defs>
<clipPath id="clip0_45806_2">
<rect width="24" height="24" rx="5" fill="white"/>
</clipPath>
</defs>
</svg>
